<svg width="22" height="22" viewBox="0 0 22 22" fill="none" xmlns="http://www.w3.org/2000/svg">
<path d="M11.0044 12.6498C11.9157 12.6498 12.6544 11.9111 12.6544 10.9999C12.6544 10.0886 11.9157 9.34991 11.0044 9.34991C10.0932 9.34991 9.35449 10.0886 9.35449 10.9999C9.35449 11.9111 10.0932 12.6498 11.0044 12.6498Z" fill="white"/>
<path d="M21.883 9.15176L21.0141 6.37983C20.9202 6.05947 20.7628 5.76129 20.5513 5.50307C20.3397 5.24485 20.0783 5.03189 19.7827 4.87688C19.487 4.72187 19.1632 4.62799 18.8305 4.60085C18.4978 4.5737 18.163 4.61384 17.8461 4.71888L17.4721 4.83987C17.1792 4.93672 16.8671 4.96129 16.5626 4.9115C16.258 4.8617 15.9701 4.73901 15.7232 4.55388L15.6022 4.46588C15.3613 4.2815 15.1671 4.04308 15.0353 3.76985C14.9034 3.49663 14.8376 3.19624 14.8432 2.89292V2.58493C14.8486 1.89418 14.5796 1.22954 14.0952 0.736981C13.8649 0.504284 13.5908 0.31939 13.2888 0.192916C12.9868 0.0664429 12.6627 0.000882388 12.3353 0H9.53036C8.85737 0.00869667 8.21506 0.282904 7.74329 0.762921C7.27151 1.24294 7.00846 1.88989 7.01142 2.56293V2.82693C7.01036 3.14622 6.93767 3.4612 6.7987 3.74866C6.65973 4.03613 6.45802 4.28874 6.20844 4.48788L6.06545 4.59788C5.78973 4.80646 5.46725 4.94454 5.12602 5.00014C4.7848 5.05573 4.43516 5.02715 4.1075 4.91687C3.80656 4.81273 3.48762 4.77074 3.16999 4.79342C2.85235 4.81611 2.54262 4.90301 2.25955 5.04887C1.96481 5.19515 1.70334 5.40052 1.49139 5.65221C1.27945 5.90389 1.12157 6.1965 1.02758 6.51183L0.1256 9.37176C-0.0835677 10.0166 -0.0299262 10.7178 0.274877 11.3233C0.579679 11.9288 1.11103 12.3896 1.75356 12.6057H1.92955C2.22595 12.7167 2.49198 12.8961 2.70603 13.1293C2.92009 13.3625 3.07614 13.6428 3.16152 13.9476L3.22752 14.1236C3.35014 14.4604 3.39115 14.8214 3.34717 15.177C3.30319 15.5327 3.17548 15.8729 2.97453 16.1696C2.56777 16.7235 2.39621 17.4157 2.49714 18.0954C2.59808 18.7752 2.96336 19.3876 3.51351 19.7995L5.79045 21.5264C6.22159 21.8399 6.74241 22.0058 7.27541 21.9994C7.41807 22.0134 7.56175 22.0134 7.7044 21.9994C8.03451 21.9355 8.34813 21.805 8.62614 21.6159C8.90414 21.4268 9.14069 21.183 9.32136 20.8995L9.57436 20.5365C9.75182 20.2819 9.98665 20.0726 10.2599 19.9255C10.5331 19.7784 10.8371 19.6975 11.1473 19.6895C11.4724 19.6815 11.7943 19.756 12.0828 19.906C12.3713 20.056 12.6171 20.2767 12.7973 20.5475L12.9293 20.7345C13.1168 21.0136 13.3595 21.2513 13.6424 21.4331C13.9253 21.6149 14.2424 21.7369 14.5742 21.7915C14.906 21.8461 15.2455 21.8322 15.5717 21.7507C15.898 21.6692 16.2041 21.5217 16.4712 21.3174L18.7041 19.6455C19.2321 19.2355 19.5832 18.639 19.6854 17.9784C19.7877 17.3178 19.6334 16.6431 19.2541 16.0926L18.9681 15.6746C18.7961 15.4089 18.6835 15.1092 18.638 14.7959C18.5924 14.4827 18.615 14.1633 18.7041 13.8596C18.795 13.5345 18.9637 13.2364 19.1956 12.9911C19.4274 12.7458 19.7156 12.5607 20.0351 12.4517L20.2551 12.3747C20.8916 12.1538 21.4174 11.694 21.7212 11.0926C22.025 10.4912 22.083 9.7952 21.883 9.15176ZM11.0043 14.8496C10.2429 14.8496 9.49854 14.6238 8.86543 14.2008C8.23232 13.7778 7.73886 13.1765 7.44747 12.473C7.15608 11.7695 7.07984 10.9954 7.22839 10.2486C7.37694 9.50183 7.74361 8.81584 8.28203 8.27742C8.82045 7.739 9.50643 7.37234 10.2532 7.22379C11 7.07524 11.7741 7.15148 12.4776 7.44287C13.1811 7.73426 13.7824 8.22771 14.2054 8.86082C14.6284 9.49394 14.8542 10.2383 14.8542 10.9997C14.8542 12.0208 14.4486 13 13.7266 13.722C13.0046 14.444 12.0254 14.8496 11.0043 14.8496Z" fill="white"/>
</svg>
